<svg width="69" height="70" viewBox="0 0 69 70" fill="none" xmlns="http://www.w3.org/2000/svg">
<path d="M16.4177 38.6511C17.7077 36.4168 19.2903 34.8156 21.1656 33.8475C23.0512 32.8854 25.1002 32.5165 27.3125 32.7407C29.5248 32.9649 31.7793 33.74 34.076 35.066C36.3727 36.392 38.1712 37.9569 39.4715 39.7607C40.7718 41.5645 41.4716 43.5204 41.5708 45.6285C41.6805 47.7426 41.0903 49.9168 39.8003 52.1511C38.2943 54.7596 36.394 56.503 34.0994 57.3814C31.8152 58.2658 29.3737 58.3665 26.775 57.6837L27.517 54.9944C29.5701 55.5424 31.4733 55.498 33.2265 54.8613C34.9798 54.2246 36.4384 52.8982 37.6024 50.8821C38.6164 49.1258 39.0593 47.4347 38.9311 45.8088C38.8028 44.1828 38.1927 42.6597 37.1005 41.2393C36.0128 39.8353 34.5396 38.583 32.681 37.4822C30.8164 36.3918 29.0042 35.7266 27.2445 35.4865C25.4787 35.2569 23.8515 35.4953 22.3629 36.2016C20.8787 36.9243 19.6296 38.1638 18.6156 39.9201C17.4516 41.9362 17.0322 43.8626 17.3575 45.6993C17.6931 47.542 18.6062 49.2124 20.0969 50.7104L18.139 52.6977C16.2483 50.7885 15.1096 48.6208 14.723 46.1944C14.3468 43.774 14.9117 41.2596 16.4177 38.6511Z" fill="#34343A"/>
<path d="M52.3836 30.5162C51.0936 32.7506 49.511 34.3518 47.6357 35.3198C45.7501 36.2819 43.7011 36.6508 41.4888 36.4267C39.2765 36.2025 37.022 35.4274 34.7253 34.1014C32.4286 32.7754 30.6301 31.2105 29.3298 29.4067C28.0295 27.6028 27.3297 25.6469 27.2304 23.5388C27.1208 21.4248 27.7109 19.2506 29.0009 17.0162C30.5069 14.4078 32.4072 12.6643 34.7018 11.786C36.9861 10.9016 39.4275 10.8008 42.0263 11.4837L41.2842 14.173C39.2311 13.625 37.328 13.6694 35.5747 14.3061C33.8215 14.9427 32.3629 16.2691 31.1989 18.2852C30.1849 20.0415 29.742 21.7327 29.8702 23.3586C29.9984 24.9845 30.6086 26.5077 31.7007 27.928C32.7885 29.332 34.2617 30.5844 36.1203 31.6852C37.9849 32.7756 39.7971 33.4408 41.5568 33.6808C43.3226 33.9104 44.9497 33.6721 46.4383 32.9658C47.9225 32.243 49.1716 31.0035 50.1856 29.2472C51.3496 27.2311 51.769 25.3047 51.4438 23.4681C51.1082 21.6254 50.195 19.955 48.7043 18.457L50.6623 16.4697C52.553 18.3788 53.6917 20.5466 54.0783 22.973C54.4545 25.3933 53.8896 27.9078 52.3836 30.5162Z" fill="#34343A"/>
<path d="M28.9317 52.1911C27.6417 49.9567 27.0463 47.7855 27.1456 45.6775C27.2552 43.5634 27.9602 41.6045 29.2605 39.8007C30.5608 37.9968 32.3593 36.4319 34.656 35.1059C36.9527 33.7799 39.2072 33.0048 41.4195 32.7807C43.6318 32.5565 45.6756 32.9284 47.5508 33.8965C49.4365 34.8585 51.0243 36.4567 52.3143 38.6911C53.8203 41.2996 54.38 43.817 53.9934 46.2434C53.6172 48.6637 52.4837 50.8285 50.593 52.7376L48.635 50.7504C50.1361 49.2463 51.0493 47.576 51.3745 45.7393C51.6998 43.9026 51.2804 41.9762 50.1164 39.9601C49.1024 38.2038 47.8593 36.9747 46.3871 36.2727C44.9148 35.5708 43.2907 35.3376 41.5145 35.5733C39.7548 35.8133 37.9336 36.4629 36.051 37.5222C34.1744 38.5918 32.6922 39.8285 31.6045 41.2325C30.5227 42.6469 29.9155 44.1752 29.7829 45.8176C29.6667 47.4643 30.1156 49.1658 31.1296 50.9221C32.2936 52.9382 33.7522 54.2646 35.5055 54.9013C37.2691 55.532 39.1723 55.5763 41.2149 55.0344L41.957 57.7236C39.3583 58.4065 36.9116 58.3087 34.617 57.4304C32.3328 56.546 30.4377 54.7996 28.9317 52.1911Z" fill="#34343A"/>
<path d="M39.8696 16.9762C41.1596 19.2106 41.755 21.3818 41.6557 23.4898C41.5461 25.6039 40.8411 27.5628 39.5408 29.3666C38.2405 31.1704 36.442 32.7354 34.1453 34.0614C31.8486 35.3874 29.5941 36.1624 27.3818 36.3866C25.1695 36.6108 23.1257 36.2389 21.2504 35.2708C19.3648 34.3088 17.7769 32.7106 16.4869 30.4762C14.9809 27.8677 14.4212 25.3503 14.8078 22.9239C15.1841 20.5036 16.3175 18.3388 18.2083 16.4297L20.1662 18.4169C18.6651 19.921 17.752 21.5913 17.4267 23.428C17.1015 25.2647 17.5209 27.1911 18.6849 29.2072C19.6989 30.9635 20.942 32.1926 22.4142 32.8946C23.8864 33.5965 25.5106 33.8297 27.2867 33.594C29.0465 33.354 30.8677 32.7044 32.7503 31.6451C34.6269 30.5755 36.1091 29.3387 37.1968 27.9348C38.2786 26.5204 38.8857 24.9921 39.0183 23.3497C39.1345 21.703 38.6856 20.0015 37.6716 18.2452C36.5076 16.2291 35.049 14.9027 33.2958 14.266C31.5322 13.6353 29.629 13.591 27.5863 14.1329L26.8443 11.4437C29.443 10.7608 31.8897 10.8586 34.1843 11.7369C36.4685 12.6213 38.3636 14.3677 39.8696 16.9762Z" fill="#34343A"/>
<path d="M46.9146 48.1236C44.3346 48.1236 42.1566 47.5536 40.3806 46.4136C38.6046 45.2616 37.2606 43.6716 36.3486 41.6436C35.4366 39.6156 34.9806 37.2756 34.9806 34.6236C34.9806 31.9716 35.4366 29.6316 36.3486 27.6036C37.2606 25.5756 38.6046 23.9916 40.3806 22.8516C42.1566 21.6996 44.3346 21.1236 46.9146 21.1236C49.9266 21.1236 52.3866 21.8976 54.2946 23.4456C56.2026 24.9816 57.5106 27.0456 58.2186 29.6376L55.5186 30.3396C54.9666 28.2876 53.9766 26.6616 52.5486 25.4616C51.1206 24.2616 49.2426 23.6616 46.9146 23.6616C44.8866 23.6616 43.2006 24.1236 41.8566 25.0476C40.5126 25.9716 39.4986 27.2616 38.8146 28.9176C38.1426 30.5616 37.7946 32.4636 37.7706 34.6236C37.7586 36.7836 38.0886 38.6856 38.7606 40.3296C39.4446 41.9736 40.4646 43.2636 41.8206 44.1996C43.1886 45.1236 44.8866 45.5856 46.9146 45.5856C49.2426 45.5856 51.1206 44.9856 52.5486 43.7856C53.9766 42.5736 54.9666 40.9476 55.5186 38.9076L58.2186 39.6096C57.5106 42.2016 56.2026 44.2716 54.2946 45.8196C52.3866 47.3556 49.9266 48.1236 46.9146 48.1236Z" fill="#34343A"/>
<path d="M21.8866 21.0436C24.4666 21.0436 26.6446 21.6136 28.4206 22.7536C30.1966 23.9056 31.5406 25.4956 32.4526 27.5236C33.3646 29.5516 33.8206 31.8916 33.8206 34.5436C33.8206 37.1956 33.3646 39.5356 32.4526 41.5636C31.5406 43.5916 30.1966 45.1756 28.4206 46.3156C26.6446 47.4676 24.4666 48.0436 21.8866 48.0436C18.8746 48.0436 16.4146 47.2696 14.5066 45.7217C12.5986 44.1856 11.2906 42.1216 10.5826 39.5296L13.2826 38.8276C13.8346 40.8796 14.8246 42.5057 16.2526 43.7057C17.6806 44.9057 19.5586 45.5057 21.8866 45.5057C23.9146 45.5057 25.6006 45.0437 26.9446 44.1197C28.2886 43.1957 29.3026 41.9056 29.9866 40.2496C30.6586 38.6056 31.0066 36.7036 31.0306 34.5436C31.0426 32.3836 30.7126 30.4816 30.0406 28.8376C29.3566 27.1936 28.3366 25.9036 26.9806 24.9676C25.6126 24.0436 23.9146 23.5816 21.8866 23.5816C19.5586 23.5816 17.6806 24.1816 16.2526 25.3816C14.8246 26.5936 13.8346 28.2196 13.2826 30.2596L10.5826 29.5576C11.2906 26.9656 12.5986 24.8956 14.5066 23.3476C16.4146 21.8116 18.8746 21.0436 21.8866 21.0436Z" fill="#34343A"/>
</svg>
