<svg width="123" height="24" viewBox="0 0 123 24" fill="none" xmlns="http://www.w3.org/2000/svg">
<path d="M14.84 5.48H12.008V13.28C12.008 15.128 12.056 17.36 12.176 19.496C11.264 17.696 10.328 15.896 9.32 14.12L4.304 5.48H0.776V23H3.608V14.936C3.608 13.064 3.584 11 3.44 8.792C4.304 10.52 5.192 12.272 6.128 13.976L11.288 23H14.84V5.48ZM26.465 5.48H23.009L16.505 23H19.625L21.305 18.344H28.025L29.681 23H32.825L26.465 5.48ZM22.121 15.704L24.713 8.336L27.233 15.704H22.121ZM51.8499 5.48H47.8419C45.7299 11.408 44.6019 14.816 43.2339 18.896C41.8659 14.816 40.7379 11.408 38.6499 5.48H34.4979V23H37.4739V13.712C37.4739 12.536 37.4739 11.168 37.4499 9.824C37.8339 11.168 38.2659 12.56 38.6739 13.712L41.8659 23H44.4339L47.6259 13.712C48.0339 12.488 48.4899 11.048 48.8739 9.68C48.8739 11.048 48.8739 12.512 48.8739 13.712V23H51.8499V5.48ZM56.6761 17.432C57.7321 17.432 58.6201 16.568 58.6201 15.488C58.6201 14.408 57.7321 13.544 56.6761 13.544C55.5961 13.544 54.7321 14.408 54.7321 15.488C54.7321 16.568 55.5961 17.432 56.6761 17.432ZM68.9577 5.144C63.3417 5.144 60.7257 8.984 60.7257 14.288C60.7257 20.264 63.7017 23.336 68.9817 23.336C73.3017 23.336 75.9417 21.248 76.4697 17.6H73.4697C73.0377 19.496 71.5497 20.648 69.0537 20.648C66.0297 20.648 63.7977 18.944 63.7977 14.144C63.7977 9.944 65.6937 7.832 68.9577 7.832C71.5257 7.832 73.0137 9.032 73.4457 10.88H76.4697C75.9897 7.52 73.6857 5.144 68.9577 5.144ZM93.1068 5.48H90.1308V12.848H81.6348V5.48H78.6588V23H81.6348V15.488H90.1308V23H93.1068V5.48ZM107.964 5.48H96.0119V23H108.156V20.36H98.9879V15.488H107.46V12.848H98.9879V8.12H107.964V5.48ZM98.5799 4.16H101.532L106.452 0.559999V0.439999L102.756 0.487999L98.5799 4.04V4.16ZM122.247 5.48H110.295V23H122.439V20.36H113.271V15.488H121.743V12.848H113.271V8.12H122.247V5.48ZM112.863 4.16H115.815L120.735 0.559999V0.439999L117.039 0.487999L112.863 4.04V4.16Z" fill="#EEEDEF"/>
</svg>
