<svg width="24" height="122" viewBox="0 0 24 122" fill="none" xmlns="http://www.w3.org/2000/svg">
<path d="M5.98 107.66L5.98 110.492H13.78C15.628 110.492 17.86 110.444 19.996 110.324C18.196 111.236 16.396 112.172 14.62 113.18L5.98 118.196V121.724H23.5V118.892H15.436C13.564 118.892 11.5 118.916 9.292 119.06C11.02 118.196 12.772 117.308 14.476 116.372L23.5 111.212V107.66H5.98ZM5.98 96.035V99.491L23.5 105.995V102.875L18.844 101.195L18.844 94.475L23.5 92.819V89.675L5.98 96.035ZM16.204 100.379L8.836 97.787L16.204 95.267V100.379ZM5.98 70.6501V74.6581C11.908 76.7701 15.316 77.8981 19.396 79.2661C15.316 80.6341 11.908 81.7621 5.98 83.8501V88.0021H23.5V85.0261H14.212C13.036 85.0261 11.668 85.0261 10.324 85.0501C11.668 84.6661 13.06 84.2341 14.212 83.8261L23.5 80.6341V78.0661L14.212 74.8741C12.988 74.4661 11.548 74.0101 10.18 73.6261C11.548 73.6261 13.012 73.6261 14.212 73.6261H23.5V70.6501H5.98ZM17.932 65.8239C17.932 64.7679 17.068 63.8799 15.988 63.8799C14.908 63.8799 14.044 64.7679 14.044 65.8239C14.044 66.9039 14.908 67.7679 15.988 67.7679C17.068 67.7679 17.932 66.9039 17.932 65.8239ZM5.644 53.5423C5.644 59.1583 9.484 61.7743 14.788 61.7743C20.764 61.7743 23.836 58.7983 23.836 53.5183C23.836 49.1983 21.748 46.5583 18.1 46.0303V49.0303C19.996 49.4623 21.148 50.9503 21.148 53.4463C21.148 56.4703 19.444 58.7023 14.644 58.7023C10.444 58.7023 8.332 56.8063 8.332 53.5423C8.332 50.9743 9.532 49.4863 11.38 49.0543V46.0303C8.02 46.5103 5.644 48.8143 5.644 53.5423ZM5.98 29.3932V32.3692H13.348V40.8652H5.98V43.8412H23.5V40.8652H15.988L15.988 32.3692H23.5V29.3932H5.98ZM5.98 14.5361L5.98 26.4881H23.5V14.3441H20.86V23.5121H15.988V15.0401H13.348L13.348 23.5121H8.62L8.62 14.5361H5.98ZM4.66 23.9201V20.9681L1.06 16.0481H0.939999L0.987999 19.7441L4.54 23.9201H4.66ZM5.98 0.253246V12.2052H23.5V0.0612459H20.86V9.22925H15.988V0.757247H13.348V9.22925H8.62V0.253246H5.98ZM4.66 9.63725V6.68525L1.06 1.76525H0.939999L0.987999 5.46125L4.54 9.63725H4.66Z" fill="#F9F8F9"/>
</svg>
